<svg width="758" height="304" viewBox="0 0 758 304" fill="none" xmlns="http://www.w3.org/2000/svg">
<path d="M26 135.095C26 42.7848 45.7848 23 138.095 23H172.905C265.215 23 285 42.7848 285 135.095V169.905C285 262.215 265.215 282 172.905 282H138.095C45.7848 282 26 262.215 26 169.905V135.095Z" fill="#FFA559"/>
<path d="M41 136.544C41 54.5695 58.5695 37 140.544 37H171.456C253.43 37 271 54.5695 271 136.544V167.456C271 249.43 253.43 267 171.456 267H140.544C58.5695 267 41 249.43 41 167.456V136.544Z" fill="#FF6000"/>
<g clip-path="url(#clip0_111_23)">
<path fill-rule="evenodd" clip-rule="evenodd" d="M237 116C237 126.607 233.33 136.357 227.191 144.049L232.071 148.929L225 156L220.128 151.128C212.423 157.305 202.643 161 192 161C190.173 161 188.371 160.891 186.6 160.679L102.499 232.6L102.454 232.546L102 233L91.9283 222.928L84.8096 230.047L77.9488 223.186L85.0675 216.067L75 206L147.363 121.742C147.123 119.862 147 117.945 147 116C147 105.357 150.695 95.5765 156.872 87.8721L152 83L159.071 75.9289L163.951 80.8089C171.643 74.6698 181.393 71 192 71C216.853 71 237 91.1472 237 116ZM136.428 190.428L102.545 219.403L88.6255 205.483L117.667 171.667L136.428 190.428ZM124.201 164.059L144.051 183.909L174.813 157.601C163.865 153.073 155.093 144.35 150.502 133.435L124.201 164.059ZM226.65 116C226.65 123.747 224.108 130.9 219.812 136.67L171.33 88.1878C177.1 83.8922 184.253 81.35 192 81.35C211.137 81.35 226.65 96.8633 226.65 116ZM164.249 95.2486L212.751 143.751C206.967 148.084 199.783 150.65 192 150.65C172.863 150.65 157.35 135.137 157.35 116C157.35 108.217 159.916 101.033 164.249 95.2486Z" fill="#FFE6C7"/>
<path d="M204.7 174.7H194.7V184.7H204.7V174.7Z" fill="#FFE6C7"/>
<path d="M153 211H143V221H153V211Z" fill="#FFE6C7"/>
<path d="M155.135 160.071L148.064 153L140.993 160.071L148.064 167.142L155.135 160.071Z" fill="#FFE6C7"/>
<path d="M104.871 135.071H94.8711V145.071H104.871V135.071Z" fill="#FFE6C7"/>
<path d="M92.6001 101.4H82.6001V111.4H92.6001V101.4Z" fill="#FFE6C7"/>
<path fill-rule="evenodd" clip-rule="evenodd" d="M171 210.594C183.303 190.971 201.09 194.031 211.5 210.594C200.092 229.088 182.35 229.034 171 210.594ZM183 210.628C187.504 204.251 195.592 205.349 199.5 210.594C195.312 216.748 187.239 216.785 183 210.628Z" fill="#FFE6C7"/>
<path fill-rule="evenodd" clip-rule="evenodd" d="M120.594 122.5C100.971 110.197 104.031 92.4104 120.594 82C139.088 93.4078 139.034 111.15 120.594 122.5ZM120.628 110.5C114.251 105.996 115.349 97.9079 120.594 94C126.748 98.1884 126.785 106.261 120.628 110.5Z" fill="#FFE6C7"/>
</g>
<path d="M361 192.62C356.147 192.62 351.592 191.836 347.336 190.268C343.08 188.625 339.421 186.199 336.36 182.988L340.168 176.044C343.528 179.18 346.888 181.42 350.248 182.764C353.608 184.108 357.043 184.78 360.552 184.78C364.584 184.78 367.869 184.033 370.408 182.54C372.947 180.972 374.216 178.695 374.216 175.708C374.216 173.543 373.544 171.937 372.2 170.892C370.931 169.847 369.101 168.988 366.712 168.316C364.323 167.569 361.485 166.748 358.2 165.852C354.168 164.657 350.771 163.388 348.008 162.044C345.245 160.7 343.155 159.02 341.736 157.004C340.317 154.988 339.608 152.449 339.608 149.388C339.608 145.655 340.579 142.519 342.52 139.98C344.461 137.367 347.112 135.388 350.472 134.044C353.907 132.7 357.789 132.028 362.12 132.028C366.451 132.028 370.371 132.7 373.88 134.044C377.389 135.388 380.413 137.367 382.952 139.98L378.472 146.812C376.157 144.423 373.619 142.668 370.856 141.548C368.093 140.353 364.995 139.756 361.56 139.756C359.544 139.756 357.565 140.017 355.624 140.54C353.683 140.988 352.077 141.847 350.808 143.116C349.539 144.311 348.904 146.028 348.904 148.268C348.904 150.135 349.389 151.628 350.36 152.748C351.405 153.793 352.899 154.689 354.84 155.436C356.856 156.183 359.283 157.004 362.12 157.9C366.525 159.169 370.333 160.439 373.544 161.708C376.829 162.977 379.368 164.62 381.16 166.636C382.952 168.652 383.848 171.452 383.848 175.036C383.848 180.561 381.757 184.892 377.576 188.028C373.395 191.089 367.869 192.62 361 192.62ZM432.712 192.62C427.933 192.62 423.677 191.425 419.943 189.036C416.21 186.647 413.261 183.623 411.095 179.964V215.356H401.239V133.036H409.975V144.012C412.29 140.428 415.314 137.553 419.047 135.388C422.781 133.148 426.85 132.028 431.256 132.028C435.287 132.028 438.983 132.849 442.344 134.492C445.704 136.135 448.616 138.375 451.08 141.212C453.544 144.049 455.448 147.297 456.792 150.956C458.21 154.54 458.92 158.311 458.92 162.268C458.92 167.793 457.8 172.871 455.56 177.5C453.394 182.129 450.333 185.825 446.376 188.588C442.418 191.276 437.864 192.62 432.712 192.62ZM429.688 184.108C432.6 184.108 435.213 183.511 437.527 182.316C439.917 181.047 441.933 179.404 443.576 177.388C445.293 175.297 446.6 172.945 447.496 170.332C448.392 167.719 448.84 165.031 448.84 162.268C448.84 159.356 448.317 156.593 447.272 153.98C446.301 151.367 444.882 149.052 443.016 147.036C441.224 145.02 439.096 143.452 436.632 142.332C434.242 141.137 431.629 140.54 428.791 140.54C426.999 140.54 425.133 140.876 423.192 141.548C421.325 142.22 419.533 143.191 417.815 144.46C416.098 145.655 414.642 147.036 413.447 148.604C412.253 150.172 411.469 151.852 411.095 153.644V170.332C412.215 172.871 413.709 175.185 415.576 177.276C417.442 179.367 419.607 181.047 422.071 182.316C424.536 183.511 427.074 184.108 429.688 184.108ZM472.029 174.588C472.029 170.855 473.074 167.644 475.165 164.956C477.33 162.193 480.279 160.065 484.013 158.572C487.746 157.079 492.077 156.332 497.005 156.332C499.618 156.332 502.381 156.556 505.293 157.004C508.205 157.377 510.781 157.975 513.021 158.796V154.54C513.021 150.06 511.677 146.551 508.989 144.012C506.301 141.399 502.493 140.092 497.565 140.092C494.354 140.092 491.255 140.689 488.269 141.884C485.357 143.004 482.258 144.647 478.973 146.812L475.389 139.868C479.197 137.255 483.005 135.313 486.813 134.044C490.621 132.7 494.578 132.028 498.685 132.028C506.151 132.028 512.05 134.119 516.381 138.3C520.711 142.407 522.877 148.156 522.877 155.548V180.3C522.877 181.495 523.101 182.391 523.549 182.988C524.071 183.511 524.893 183.809 526.013 183.884V191.5C525.042 191.649 524.183 191.761 523.437 191.836C522.765 191.911 522.205 191.948 521.757 191.948C519.442 191.948 517.687 191.313 516.493 190.044C515.373 188.775 514.738 187.431 514.589 186.012L514.365 182.316C511.826 185.601 508.503 188.14 504.397 189.932C500.29 191.724 496.221 192.62 492.189 192.62C488.306 192.62 484.834 191.836 481.773 190.268C478.711 188.625 476.322 186.46 474.605 183.772C472.887 181.009 472.029 177.948 472.029 174.588ZM510.109 178.732C511.005 177.687 511.714 176.641 512.237 175.596C512.759 174.476 513.021 173.543 513.021 172.796V165.516C510.706 164.62 508.279 163.948 505.741 163.5C503.202 162.977 500.701 162.716 498.237 162.716C493.234 162.716 489.165 163.724 486.029 165.74C482.967 167.681 481.437 170.369 481.437 173.804C481.437 175.671 481.922 177.5 482.893 179.292C483.938 181.009 485.431 182.428 487.373 183.548C489.389 184.668 491.853 185.228 494.765 185.228C497.826 185.228 500.738 184.631 503.501 183.436C506.263 182.167 508.466 180.599 510.109 178.732ZM575.148 141.66C570.22 141.735 565.852 143.004 562.044 145.468C558.311 147.857 555.66 151.18 554.092 155.436V191.5H544.236V133.036H553.42V146.588C555.436 142.556 558.087 139.308 561.372 136.844C564.732 134.305 568.242 132.887 571.9 132.588C572.647 132.588 573.282 132.588 573.804 132.588C574.327 132.588 574.775 132.625 575.148 132.7V141.66ZM631.74 191.5L611.468 163.052L600.38 173.468V191.5H590.524V109.74H600.38V163.164L630.62 133.148H641.26L617.964 157.34L642.38 191.5H631.74ZM678.972 192.62C674.567 192.62 670.572 191.836 666.988 190.268C663.404 188.625 660.306 186.423 657.692 183.66C655.079 180.823 653.063 177.575 651.644 173.916C650.226 170.257 649.516 166.412 649.516 162.38C649.516 158.273 650.226 154.391 651.644 150.732C653.063 147.073 655.079 143.863 657.692 141.1C660.306 138.263 663.404 136.06 666.988 134.492C670.647 132.849 674.642 132.028 678.972 132.028C683.378 132.028 687.372 132.849 690.956 134.492C694.54 136.06 697.639 138.263 700.252 141.1C702.94 143.863 704.994 147.073 706.412 150.732C707.831 154.391 708.54 158.273 708.54 162.38C708.54 166.412 707.831 170.257 706.412 173.916C704.994 177.575 702.978 180.823 700.364 183.66C697.751 186.423 694.615 188.625 690.956 190.268C687.372 191.836 683.378 192.62 678.972 192.62ZM659.596 162.492C659.596 166.524 660.455 170.183 662.172 173.468C663.964 176.753 666.316 179.367 669.228 181.308C672.14 183.175 675.388 184.108 678.972 184.108C682.556 184.108 685.804 183.137 688.716 181.196C691.703 179.255 694.055 176.641 695.772 173.356C697.564 169.996 698.46 166.3 698.46 162.268C698.46 158.236 697.564 154.577 695.772 151.292C694.055 148.007 691.703 145.393 688.716 143.452C685.804 141.511 682.556 140.54 678.972 140.54C675.388 140.54 672.14 141.548 669.228 143.564C666.316 145.505 663.964 148.119 662.172 151.404C660.455 154.689 659.596 158.385 659.596 162.492Z" fill="#F2F2F2"/>
<defs>
<clipPath id="clip0_111_23">
<rect width="162" height="162" fill="white" transform="translate(75 71)"/>
</clipPath>
</defs>
</svg>
